solid Untitled-5731ef04
facet normal 0.3826834323650908 0.9238795325112864 0.0
  outer loop
    vertex 0.647047612756304 2.4148145657226703 1.9999999999999998
    vertex 1.250000000000001 2.165063509461096 0.9999999999999999
    vertex 0.647047612756304 2.4148145657226703 0.9999999999999999
  endloop
endfacet
facet normal 0.3826834323650908 0.9238795325112864 0.0
  outer loop
    vertex 1.250000000000001 2.165063509461096 0.9999999999999999
    vertex 0.647047612756304 2.4148145657226703 1.9999999999999998
    vertex 1.250000000000001 2.165063509461096 1.9999999999999998
  endloop
endfacet
facet normal 0.9914448613738105 0.13052619222005135 0.0
  outer loop
    vertex 2.414814565722671 0.6470476127563007 0.9999999999999999
    vertex 2.5 -4.592425496802574e-16 1.9999999999999998
    vertex 2.5 -4.592425496802574e-16 0.9999999999999999
  endloop
endfacet
facet normal 0.9914448613738105 0.13052619222005135 0.0
  outer loop
    vertex 2.5 -4.592425496802574e-16 1.9999999999999998
    vertex 2.414814565722671 0.6470476127563007 0.9999999999999999
    vertex 2.414814565722671 0.6470476127563007 1.9999999999999998
  endloop
endfacet
facet normal -0.6087614290087208 0.7933533402912353 0.0
  outer loop
    vertex -1.7677669529663687 1.767766952966369 1.9999999999999998
    vertex -1.2499999999999998 2.165063509461097 0.9999999999999999
    vertex -1.7677669529663687 1.767766952966369 0.9999999999999999
  endloop
endfacet
facet normal -0.6087614290087208 0.7933533402912353 0.0
  outer loop
    vertex -1.2499999999999998 2.165063509461097 0.9999999999999999
    vertex -1.7677669529663687 1.767766952966369 1.9999999999999998
    vertex -1.2499999999999998 2.165063509461097 1.9999999999999998
  endloop
endfacet
facet normal 0.9238795325112865 -0.38268343236509084 0.0
  outer loop
    vertex 2.4148145657226703 -0.6470476127563038 0.9999999999999999
    vertex 2.165063509461096 -1.250000000000001 1.9999999999999998
    vertex 2.165063509461096 -1.250000000000001 0.9999999999999999
  endloop
endfacet
facet normal 0.9238795325112865 -0.38268343236509084 0.0
  outer loop
    vertex 2.165063509461096 -1.250000000000001 1.9999999999999998
    vertex 2.4148145657226703 -0.6470476127563038 0.9999999999999999
    vertex 2.4148145657226703 -0.6470476127563038 1.9999999999999998
  endloop
endfacet
facet normal 0.6087614290087208 0.7933533402912352 0.0
  outer loop
    vertex 1.250000000000001 2.165063509461096 1.9999999999999998
    vertex 1.7677669529663693 1.7677669529663682 0.9999999999999999
    vertex 1.250000000000001 2.165063509461096 0.9999999999999999
  endloop
endfacet
facet normal 0.6087614290087208 0.7933533402912352 0.0
  outer loop
    vertex 1.7677669529663693 1.7677669529663682 0.9999999999999999
    vertex 1.250000000000001 2.165063509461096 1.9999999999999998
    vertex 1.7677669529663693 1.7677669529663682 1.9999999999999998
  endloop
endfacet
facet normal 0.7933533402912357 0.6087614290087202 0.0
  outer loop
    vertex 1.7677669529663693 1.7677669529663682 0.9999999999999999
    vertex 2.1650635094610977 1.2499999999999982 1.9999999999999998
    vertex 2.1650635094610977 1.2499999999999982 0.9999999999999999
  endloop
endfacet
facet normal 0.7933533402912357 0.6087614290087202 0.0
  outer loop
    vertex 2.1650635094610977 1.2499999999999982 1.9999999999999998
    vertex 1.7677669529663693 1.7677669529663682 0.9999999999999999
    vertex 1.7677669529663693 1.7677669529663682 1.9999999999999998
  endloop
endfacet
facet normal 0.13052619222005188 0.9914448613738105 0.0
  outer loop
    vertex 0.0 2.5 1.9999999999999998
    vertex 0.647047612756304 2.4148145657226703 0.9999999999999999
    vertex 0.0 2.5 0.9999999999999999
  endloop
endfacet
facet normal 0.13052619222005188 0.9914448613738105 0.0
  outer loop
    vertex 0.647047612756304 2.4148145657226703 0.9999999999999999
    vertex 0.0 2.5 1.9999999999999998
    vertex 0.647047612756304 2.4148145657226703 1.9999999999999998
  endloop
endfacet
facet normal 0.7933533402912352 -0.6087614290087209 0.0
  outer loop
    vertex 2.165063509461096 -1.250000000000001 0.9999999999999999
    vertex 1.767766952966368 -1.7677669529663698 1.9999999999999998
    vertex 1.767766952966368 -1.7677669529663698 0.9999999999999999
  endloop
endfacet
facet normal 0.7933533402912352 -0.6087614290087209 0.0
  outer loop
    vertex 1.767766952966368 -1.7677669529663698 1.9999999999999998
    vertex 2.165063509461096 -1.250000000000001 0.9999999999999999
    vertex 2.165063509461096 -1.250000000000001 1.9999999999999998
  endloop
endfacet
facet normal 0.6087614290087204 -0.7933533402912353 0.0
  outer loop
    vertex 1.767766952966368 -1.7677669529663698 1.9999999999999998
    vertex 1.2499999999999993 -2.1650635094610973 0.9999999999999999
    vertex 1.767766952966368 -1.7677669529663698 0.9999999999999999
  endloop
endfacet
facet normal 0.6087614290087204 -0.7933533402912353 0.0
  outer loop
    vertex 1.2499999999999993 -2.1650635094610973 0.9999999999999999
    vertex 1.767766952966368 -1.7677669529663698 1.9999999999999998
    vertex 1.2499999999999993 -2.1650635094610973 1.9999999999999998
  endloop
endfacet
facet normal 0.13052619222005138 -0.9914448613738105 0.0
  outer loop
    vertex 0.6470476127563008 -2.414814565722671 1.9999999999999998
    vertex -3.061616997868383e-16 -2.5 0.9999999999999999
    vertex 0.6470476127563008 -2.414814565722671 0.9999999999999999
  endloop
endfacet
facet normal 0.13052619222005138 -0.9914448613738105 0.0
  outer loop
    vertex -3.061616997868383e-16 -2.5 0.9999999999999999
    vertex 0.6470476127563008 -2.414814565722671 1.9999999999999998
    vertex -3.061616997868383e-16 -2.5 1.9999999999999998
  endloop
endfacet
facet normal -0.13052619222005168 -0.9914448613738105 -0.0
  outer loop
    vertex -3.061616997868383e-16 -2.5 1.9999999999999998
    vertex -0.6470476127563025 -2.4148145657226707 0.9999999999999999
    vertex -3.061616997868383e-16 -2.5 0.9999999999999999
  endloop
endfacet
facet normal -0.13052619222005168 -0.9914448613738105 -0.0
  outer loop
    vertex -0.6470476127563025 -2.4148145657226707 0.9999999999999999
    vertex -3.061616997868383e-16 -2.5 1.9999999999999998
    vertex -0.6470476127563025 -2.4148145657226707 1.9999999999999998
  endloop
endfacet
facet normal -0.38268343236509006 -0.9238795325112866 -0.0
  outer loop
    vertex -0.6470476127563025 -2.4148145657226707 1.9999999999999998
    vertex -1.2500000000000009 -2.1650635094610964 0.9999999999999999
    vertex -0.6470476127563025 -2.4148145657226707 0.9999999999999999
  endloop
endfacet
facet normal -0.38268343236509006 -0.9238795325112866 -0.0
  outer loop
    vertex -1.2500000000000009 -2.1650635094610964 0.9999999999999999
    vertex -0.6470476127563025 -2.4148145657226707 1.9999999999999998
    vertex -1.2500000000000009 -2.1650635094610964 1.9999999999999998
  endloop
endfacet
facet normal -0.6087614290087209 -0.793353340291235 -0.0
  outer loop
    vertex -1.2500000000000009 -2.1650635094610964 1.9999999999999998
    vertex -1.767766952966369 -1.7677669529663687 0.9999999999999999
    vertex -1.2500000000000009 -2.1650635094610964 0.9999999999999999
  endloop
endfacet
facet normal -0.6087614290087209 -0.793353340291235 -0.0
  outer loop
    vertex -1.767766952966369 -1.7677669529663687 0.9999999999999999
    vertex -1.2500000000000009 -2.1650635094610964 1.9999999999999998
    vertex -1.767766952966369 -1.7677669529663687 1.9999999999999998
  endloop
endfacet
facet normal -0.13052619222005174 0.9914448613738104 0.0
  outer loop
    vertex -0.6470476127563018 2.4148145657226707 1.9999999999999998
    vertex 0.0 2.5 0.9999999999999999
    vertex -0.6470476127563018 2.4148145657226707 0.9999999999999999
  endloop
endfacet
facet normal -0.13052619222005174 0.9914448613738104 0.0
  outer loop
    vertex 0.0 2.5 0.9999999999999999
    vertex -0.6470476127563018 2.4148145657226707 1.9999999999999998
    vertex 0.0 2.5 1.9999999999999998
  endloop
endfacet
facet normal -0.7933533402912353 -0.6087614290087204 -0.0
  outer loop
    vertex -2.165063509461097 -1.2499999999999996 1.9999999999999998
    vertex -1.767766952966369 -1.7677669529663687 0.9999999999999999
    vertex -1.767766952966369 -1.7677669529663687 1.9999999999999998
  endloop
endfacet
facet normal -0.7933533402912353 -0.6087614290087204 -0.0
  outer loop
    vertex -1.767766952966369 -1.7677669529663687 0.9999999999999999
    vertex -2.165063509461097 -1.2499999999999996 1.9999999999999998
    vertex -2.165063509461097 -1.2499999999999996 0.9999999999999999
  endloop
endfacet
facet normal -0.923879532511287 -0.3826834323650894 -0.0
  outer loop
    vertex -2.4148145657226707 -0.6470476127563015 1.9999999999999998
    vertex -2.165063509461097 -1.2499999999999996 0.9999999999999999
    vertex -2.165063509461097 -1.2499999999999996 1.9999999999999998
  endloop
endfacet
facet normal -0.923879532511287 -0.3826834323650894 -0.0
  outer loop
    vertex -2.165063509461097 -1.2499999999999996 0.9999999999999999
    vertex -2.4148145657226707 -0.6470476127563015 1.9999999999999998
    vertex -2.4148145657226707 -0.6470476127563015 0.9999999999999999
  endloop
endfacet
facet normal -0.9914448613738104 -0.13052619222005177 -0.0
  outer loop
    vertex -2.5 1.5308084989341916e-16 1.9999999999999998
    vertex -2.4148145657226707 -0.6470476127563015 0.9999999999999999
    vertex -2.4148145657226707 -0.6470476127563015 1.9999999999999998
  endloop
endfacet
facet normal -0.9914448613738104 -0.13052619222005177 -0.0
  outer loop
    vertex -2.4148145657226707 -0.6470476127563015 0.9999999999999999
    vertex -2.5 1.5308084989341916e-16 1.9999999999999998
    vertex -2.5 1.5308084989341916e-16 0.9999999999999999
  endloop
endfacet
facet normal -0.9914448613738105 0.13052619222005168 0.0
  outer loop
    vertex -2.4148145657226707 0.6470476127563024 1.9999999999999998
    vertex -2.5 1.5308084989341916e-16 0.9999999999999999
    vertex -2.5 1.5308084989341916e-16 1.9999999999999998
  endloop
endfacet
facet normal -0.9914448613738105 0.13052619222005168 0.0
  outer loop
    vertex -2.5 1.5308084989341916e-16 0.9999999999999999
    vertex -2.4148145657226707 0.6470476127563024 1.9999999999999998
    vertex -2.4148145657226707 0.6470476127563024 0.9999999999999999
  endloop
endfacet
facet normal 0.0 0.0 -1.0
  outer loop
    vertex -1.6913743883839267 7.3067949662159615 0.0
    vertex -1.4722606106229001 0.28713880686574805 0.0
    vertex -1.4964115386336434 -0.1036942961020185 0.0
  endloop
endfacet
facet normal 0.0 0.0 -1.0
  outer loop
    vertex -1.4722606106229001 0.28713880686574805 0.0
    vertex -1.6913743883839267 7.3067949662159615 0.0
    vertex 0.2573954922520082 7.495581869379344 0.0
  endloop
endfacet
facet normal 0.0 0.0 -1.0
  outer loop
    vertex -1.4722606106229001 0.28713880686574805 0.0
    vertex 0.2573954922520082 7.495581869379344 0.0
    vertex -1.3477775550239033 0.6584038746649274 0.0
  endloop
endfacet
facet normal 0.0 0.0 -1.0
  outer loop
    vertex -1.3477775550239033 0.6584038746649274 0.0
    vertex 0.2573954922520082 7.495581869379344 0.0
    vertex -1.1314456863577473 0.9847998064695411 0.0
  endloop
endfacet
facet normal 0.0 0.0 -1.0
  outer loop
    vertex -1.1314456863577473 0.9847998064695411 0.0
    vertex 0.2573954922520082 7.495581869379344 0.0
    vertex -0.8380076639687154 1.2440832589218844 0.0
  endloop
endfacet
facet normal 0.0 0.0 -1.0
  outer loop
    vertex -0.8380076639687154 1.2440832589218844 0.0
    vertex 0.2573954922520082 7.495581869379344 0.0
    vertex -0.4874608041533589 1.418584493223495 0.0
  endloop
endfacet
facet normal 0.0 0.0 -1.0
  outer loop
    vertex -0.4874608041533589 1.418584493223495 0.0
    vertex 0.2573954922520082 7.495581869379344 0.0
    vertex -0.10369429610201832 1.4964115386336434 0.0
  endloop
endfacet
facet normal 0.0 0.0 -1.0
  outer loop
    vertex -0.10369429610201832 1.4964115386336434 0.0
    vertex 0.2573954922520082 7.495581869379344 0.0
    vertex 0.28713880686574766 1.4722606106229001 0.0
  endloop
endfacet
facet normal 0.0 0.0 -1.0
  outer loop
    vertex 0.28713880686574766 1.4722606106229001 0.0
    vertex 0.2573954922520082 7.495581869379344 0.0
    vertex 2.188624295457133 7.173557255179245 0.0
  endloop
endfacet
facet normal 0.0 0.0 -1.0
  outer loop
    vertex 0.28713880686574766 1.4722606106229001 0.0
    vertex 2.188624295457133 7.173557255179245 0.0
    vertex 0.6584038746649278 1.347777555023903 0.0
  endloop
endfacet
facet normal 0.0 0.0 -1.0
  outer loop
    vertex 0.6584038746649278 1.347777555023903 0.0
    vertex 2.188624295457133 7.173557255179245 0.0
    vertex 0.9847998064695414 1.1314456863577478 0.0
  endloop
endfacet
facet normal 0.0 0.0 -1.0
  outer loop
    vertex 0.9847998064695414 1.1314456863577478 0.0
    vertex 2.188624295457133 7.173557255179245 0.0
    vertex 1.2440832589218846 0.8380076639687157 0.0
  endloop
endfacet
facet normal 0.0 0.0 -1.0
  outer loop
    vertex 1.2440832589218846 0.8380076639687157 0.0
    vertex 2.188624295457133 7.173557255179245 0.0
    vertex 1.4185844932234952 0.4874608041533593 0.0
  endloop
endfacet
facet normal 0.0 0.0 -1.0
  outer loop
    vertex 1.4185844932234952 0.4874608041533593 0.0
    vertex 2.188624295457133 7.173557255179245 0.0
    vertex 1.496411538633643 0.10369429610201902 0.0
  endloop
endfacet
facet normal 0.0 0.0 -1.0
  outer loop
    vertex 1.496411538633643 0.10369429610201902 0.0
    vertex 2.188624295457133 7.173557255179245 0.0
    vertex 1.6913743883839236 -7.3067949662159615 0.0
  endloop
endfacet
facet normal 0.0 0.0 -1.0
  outer loop
    vertex 1.6913743883839236 -7.3067949662159615 0.0
    vertex 2.188624295457133 7.173557255179245 0.0
    vertex 3.5248798995798283 -6.620062061154571 0.0
  endloop
endfacet
facet normal 0.0 0.0 -1.0
  outer loop
    vertex 3.5248798995798283 -6.620062061154571 0.0
    vertex 2.188624295457133 7.173557255179245 0.0
    vertex 3.9707019697995114 6.3626665689025605 0.0
  endloop
endfacet
facet normal 0.0 0.0 -1.0
  outer loop
    vertex 3.5248798995798283 -6.620062061154571 0.0
    vertex 3.9707019697995114 6.3626665689025605 0.0
    vertex 5.118170670758828 -5.482182866795318 0.0
  endloop
endfacet
facet normal 0.0 0.0 -1.0
  outer loop
    vertex 5.118170670758828 -5.482182866795318 0.0
    vertex 3.9707019697995114 6.3626665689025605 0.0
    vertex 5.482182866795317 5.118170670758829 0.0
  endloop
endfacet
facet normal 0.0 0.0 -1.0
  outer loop
    vertex 5.118170670758828 -5.482182866795318 0.0
    vertex 5.482182866795317 5.118170670758829 0.0
    vertex 6.36266656890256 -3.9707019697995145 0.0
  endloop
endfacet
facet normal 0.0 0.0 -1.0
  outer loop
    vertex 6.36266656890256 -3.9707019697995145 0.0
    vertex 5.482182866795317 5.118170670758829 0.0
    vertex 6.620062061154571 3.5248798995798274 0.0
  endloop
endfacet
facet normal 0.0 0.0 -1.0
  outer loop
    vertex 6.36266656890256 -3.9707019697995145 0.0
    vertex 6.620062061154571 3.5248798995798274 0.0
    vertex 7.173557255179244 -2.1886242954571387 0.0
  endloop
endfacet
facet normal 0.0 0.0 -1.0
  outer loop
    vertex 7.173557255179244 -2.1886242954571387 0.0
    vertex 6.620062061154571 3.5248798995798274 0.0
    vertex 7.3067949662159615 1.6913743883839236 0.0
  endloop
endfacet
facet normal 0.0 0.0 -1.0
  outer loop
    vertex 7.173557255179244 -2.1886242954571387 0.0
    vertex 7.3067949662159615 1.6913743883839236 0.0
    vertex 7.495581869379345 -0.2573954922520089 0.0
  endloop
endfacet
facet normal 0.0 0.0 -1.0
  outer loop
    vertex -7.173557255179245 2.1886242954571333 0.0
    vertex -7.3067949662159615 -1.6913743883839254 0.0
    vertex -7.495581869379344 0.2573954922520082 0.0
  endloop
endfacet
facet normal 0.0 0.0 -1.0
  outer loop
    vertex -7.3067949662159615 -1.6913743883839254 0.0
    vertex -7.173557255179245 2.1886242954571333 0.0
    vertex -6.620062061154569 -3.5248798995798314 0.0
  endloop
endfacet
facet normal 0.0 0.0 -1.0
  outer loop
    vertex -6.620062061154569 -3.5248798995798314 0.0
    vertex -7.173557255179245 2.1886242954571333 0.0
    vertex -6.36266656890256 3.9707019697995123 0.0
  endloop
endfacet
facet normal 0.0 0.0 -1.0
  outer loop
    vertex -6.620062061154569 -3.5248798995798314 0.0
    vertex -6.36266656890256 3.9707019697995123 0.0
    vertex -5.482182866795318 -5.118170670758828 0.0
  endloop
endfacet
facet normal 0.0 0.0 -1.0
  outer loop
    vertex -5.482182866795318 -5.118170670758828 0.0
    vertex -6.36266656890256 3.9707019697995123 0.0
    vertex -5.118170670758829 5.482182866795317 0.0
  endloop
endfacet
facet normal 0.0 0.0 -1.0
  outer loop
    vertex -5.482182866795318 -5.118170670758828 0.0
    vertex -5.118170670758829 5.482182866795317 0.0
    vertex -3.9707019697995145 -6.36266656890256 0.0
  endloop
endfacet
facet normal 0.0 0.0 -1.0
  outer loop
    vertex -3.9707019697995145 -6.36266656890256 0.0
    vertex -5.118170670758829 5.482182866795317 0.0
    vertex -3.5248798995798314 6.620062061154569 0.0
  endloop
endfacet
facet normal 0.0 0.0 -1.0
  outer loop
    vertex -3.9707019697995145 -6.36266656890256 0.0
    vertex -3.5248798995798314 6.620062061154569 0.0
    vertex -2.1886242954571338 -7.173557255179244 0.0
  endloop
endfacet
facet normal 0.0 0.0 -1.0
  outer loop
    vertex -2.1886242954571338 -7.173557255179244 0.0
    vertex -3.5248798995798314 6.620062061154569 0.0
    vertex -1.6913743883839267 7.3067949662159615 0.0
  endloop
endfacet
facet normal 0.0 0.0 -1.0
  outer loop
    vertex -2.1886242954571338 -7.173557255179244 0.0
    vertex -1.6913743883839267 7.3067949662159615 0.0
    vertex -1.4964115386336434 -0.1036942961020185 0.0
  endloop
endfacet
facet normal 0.0 0.0 -1.0
  outer loop
    vertex -2.1886242954571338 -7.173557255179244 0.0
    vertex -1.4964115386336434 -0.1036942961020185 0.0
    vertex -0.25739549225201175 -7.495581869379344 0.0
  endloop
endfacet
facet normal 0.0 0.0 -1.0
  outer loop
    vertex -0.25739549225201175 -7.495581869379344 0.0
    vertex -1.4964115386336434 -0.1036942961020185 0.0
    vertex -1.4185844932234957 -0.4874608041533586 0.0
  endloop
endfacet
facet normal 0.0 0.0 -1.0
  outer loop
    vertex -0.25739549225201175 -7.495581869379344 0.0
    vertex -1.4185844932234957 -0.4874608041533586 0.0
    vertex -1.2440832589218846 -0.8380076639687156 0.0
  endloop
endfacet
facet normal 0.0 0.0 -1.0
  outer loop
    vertex -0.25739549225201175 -7.495581869379344 0.0
    vertex -1.2440832589218846 -0.8380076639687156 0.0
    vertex -0.9847998064695417 -1.1314456863577473 0.0
  endloop
endfacet
facet normal 0.0 0.0 -1.0
  outer loop
    vertex -0.25739549225201175 -7.495581869379344 0.0
    vertex -0.9847998064695417 -1.1314456863577473 0.0
    vertex -0.6584038746649284 -1.3477775550239028 0.0
  endloop
endfacet
facet normal 0.0 0.0 -1.0
  outer loop
    vertex -0.25739549225201175 -7.495581869379344 0.0
    vertex -0.6584038746649284 -1.3477775550239028 0.0
    vertex -0.2871388068657478 -1.4722606106229001 0.0
  endloop
endfacet
facet normal 0.0 0.0 -1.0
  outer loop
    vertex -0.25739549225201175 -7.495581869379344 0.0
    vertex -0.2871388068657478 -1.4722606106229001 0.0
    vertex 0.10369429610201814 -1.4964115386336432 0.0
  endloop
endfacet
facet normal 0.0 0.0 -1.0
  outer loop
    vertex -0.25739549225201175 -7.495581869379344 0.0
    vertex 0.10369429610201814 -1.4964115386336432 0.0
    vertex 1.6913743883839236 -7.3067949662159615 0.0
  endloop
endfacet
facet normal 0.0 0.0 -1.0
  outer loop
    vertex 1.6913743883839236 -7.3067949662159615 0.0
    vertex 0.10369429610201814 -1.4964115386336432 0.0
    vertex 0.48746080415335824 -1.4185844932234954 0.0
  endloop
endfacet
facet normal 0.0 0.0 -1.0
  outer loop
    vertex 1.6913743883839236 -7.3067949662159615 0.0
    vertex 0.48746080415335824 -1.4185844932234954 0.0
    vertex 0.8380076639687156 -1.2440832589218842 0.0
  endloop
endfacet
facet normal 0.0 0.0 -1.0
  outer loop
    vertex 1.6913743883839236 -7.3067949662159615 0.0
    vertex 0.8380076639687156 -1.2440832589218842 0.0
    vertex 1.1314456863577478 -0.9847998064695408 0.0
  endloop
endfacet
facet normal 0.0 0.0 -1.0
  outer loop
    vertex 1.6913743883839236 -7.3067949662159615 0.0
    vertex 1.1314456863577478 -0.9847998064695408 0.0
    vertex 1.3477775550239035 -0.6584038746649271 0.0
  endloop
endfacet
facet normal 0.0 0.0 -1.0
  outer loop
    vertex 1.6913743883839236 -7.3067949662159615 0.0
    vertex 1.3477775550239035 -0.6584038746649271 0.0
    vertex 1.4722606106229006 -0.28713880686574716 0.0
  endloop
endfacet
facet normal 0.0 0.0 -1.0
  outer loop
    vertex 1.6913743883839236 -7.3067949662159615 0.0
    vertex 1.4722606106229006 -0.28713880686574716 0.0
    vertex 1.496411538633643 0.10369429610201902 0.0
  endloop
endfacet
facet normal 0.0 0.0 -1.0
  outer loop
    vertex -1.7677669529663687 1.767766952966369 1.9999999999999998
    vertex -1.4722606106229001 0.28713880686574805 1.9999999999999998
    vertex -1.4964115386336434 -0.1036942961020185 1.9999999999999998
  endloop
endfacet
facet normal 0.0 0.0 -1.0
  outer loop
    vertex -1.4722606106229001 0.28713880686574805 1.9999999999999998
    vertex -1.7677669529663687 1.767766952966369 1.9999999999999998
    vertex -1.2499999999999998 2.165063509461097 1.9999999999999998
  endloop
endfacet
facet normal 0.0 0.0 -1.0
  outer loop
    vertex -1.4722606106229001 0.28713880686574805 1.9999999999999998
    vertex -1.2499999999999998 2.165063509461097 1.9999999999999998
    vertex -1.3477775550239033 0.6584038746649274 1.9999999999999998
  endloop
endfacet
facet normal 0.0 0.0 -1.0
  outer loop
    vertex -1.3477775550239033 0.6584038746649274 1.9999999999999998
    vertex -1.2499999999999998 2.165063509461097 1.9999999999999998
    vertex -1.1314456863577473 0.9847998064695411 1.9999999999999998
  endloop
endfacet
facet normal 0.0 0.0 -1.0
  outer loop
    vertex -1.1314456863577473 0.9847998064695411 1.9999999999999998
    vertex -1.2499999999999998 2.165063509461097 1.9999999999999998
    vertex -0.6470476127563018 2.4148145657226707 1.9999999999999998
  endloop
endfacet
facet normal 0.0 0.0 -1.0
  outer loop
    vertex -1.1314456863577473 0.9847998064695411 1.9999999999999998
    vertex -0.6470476127563018 2.4148145657226707 1.9999999999999998
    vertex -0.8380076639687154 1.2440832589218844 1.9999999999999998
  endloop
endfacet
facet normal 0.0 0.0 -1.0
  outer loop
    vertex -0.8380076639687154 1.2440832589218844 1.9999999999999998
    vertex -0.6470476127563018 2.4148145657226707 1.9999999999999998
    vertex -0.4874608041533589 1.418584493223495 1.9999999999999998
  endloop
endfacet
facet normal 0.0 0.0 -1.0
  outer loop
    vertex -0.4874608041533589 1.418584493223495 1.9999999999999998
    vertex -0.6470476127563018 2.4148145657226707 1.9999999999999998
    vertex 0.0 2.5 1.9999999999999998
  endloop
endfacet
facet normal 0.0 0.0 -1.0
  outer loop
    vertex -0.4874608041533589 1.418584493223495 1.9999999999999998
    vertex 0.0 2.5 1.9999999999999998
    vertex -0.10369429610201832 1.4964115386336434 1.9999999999999998
  endloop
endfacet
facet normal 0.0 0.0 -1.0
  outer loop
    vertex -0.10369429610201832 1.4964115386336434 1.9999999999999998
    vertex 0.0 2.5 1.9999999999999998
    vertex 0.28713880686574766 1.4722606106229001 1.9999999999999998
  endloop
endfacet
facet normal 0.0 0.0 -1.0
  outer loop
    vertex 0.28713880686574766 1.4722606106229001 1.9999999999999998
    vertex 0.0 2.5 1.9999999999999998
    vertex 0.647047612756304 2.4148145657226703 1.9999999999999998
  endloop
endfacet
facet normal 0.0 0.0 -1.0
  outer loop
    vertex 0.28713880686574766 1.4722606106229001 1.9999999999999998
    vertex 0.647047612756304 2.4148145657226703 1.9999999999999998
    vertex 0.6584038746649278 1.347777555023903 1.9999999999999998
  endloop
endfacet
facet normal 0.0 0.0 -1.0
  outer loop
    vertex 0.6584038746649278 1.347777555023903 1.9999999999999998
    vertex 0.647047612756304 2.4148145657226703 1.9999999999999998
    vertex 1.250000000000001 2.165063509461096 1.9999999999999998
  endloop
endfacet
facet normal 0.0 0.0 -1.0
  outer loop
    vertex 0.6584038746649278 1.347777555023903 1.9999999999999998
    vertex 1.250000000000001 2.165063509461096 1.9999999999999998
    vertex 0.9847998064695414 1.1314456863577478 1.9999999999999998
  endloop
endfacet
facet normal 0.0 0.0 -1.0
  outer loop
    vertex 0.9847998064695414 1.1314456863577478 1.9999999999999998
    vertex 1.250000000000001 2.165063509461096 1.9999999999999998
    vertex 1.2440832589218846 0.8380076639687157 1.9999999999999998
  endloop
endfacet
facet normal 0.0 0.0 -1.0
  outer loop
    vertex 1.2440832589218846 0.8380076639687157 1.9999999999999998
    vertex 1.250000000000001 2.165063509461096 1.9999999999999998
    vertex 1.4185844932234952 0.4874608041533593 1.9999999999999998
  endloop
endfacet
facet normal 0.0 0.0 -1.0
  outer loop
    vertex 1.4185844932234952 0.4874608041533593 1.9999999999999998
    vertex 1.250000000000001 2.165063509461096 1.9999999999999998
    vertex 1.7677669529663693 1.7677669529663682 1.9999999999999998
  endloop
endfacet
facet normal 0.0 0.0 -1.0
  outer loop
    vertex 1.4185844932234952 0.4874608041533593 1.9999999999999998
    vertex 1.7677669529663693 1.7677669529663682 1.9999999999999998
    vertex 1.496411538633643 0.10369429610201902 1.9999999999999998
  endloop
endfacet
facet normal 0.0 0.0 -1.0
  outer loop
    vertex 1.496411538633643 0.10369429610201902 1.9999999999999998
    vertex 1.7677669529663693 1.7677669529663682 1.9999999999999998
    vertex 1.767766952966368 -1.7677669529663698 1.9999999999999998
  endloop
endfacet
facet normal 0.0 0.0 -1.0
  outer loop
    vertex 1.767766952966368 -1.7677669529663698 1.9999999999999998
    vertex 1.7677669529663693 1.7677669529663682 1.9999999999999998
    vertex 2.165063509461096 -1.250000000000001 1.9999999999999998
  endloop
endfacet
facet normal 0.0 0.0 -1.0
  outer loop
    vertex 2.165063509461096 -1.250000000000001 1.9999999999999998
    vertex 1.7677669529663693 1.7677669529663682 1.9999999999999998
    vertex 2.1650635094610977 1.2499999999999982 1.9999999999999998
  endloop
endfacet
facet normal 0.0 0.0 -1.0
  outer loop
    vertex 2.165063509461096 -1.250000000000001 1.9999999999999998
    vertex 2.1650635094610977 1.2499999999999982 1.9999999999999998
    vertex 2.4148145657226703 -0.6470476127563038 1.9999999999999998
  endloop
endfacet
facet normal 0.0 0.0 -1.0
  outer loop
    vertex 2.4148145657226703 -0.6470476127563038 1.9999999999999998
    vertex 2.1650635094610977 1.2499999999999982 1.9999999999999998
    vertex 2.414814565722671 0.6470476127563007 1.9999999999999998
  endloop
endfacet
facet normal 0.0 0.0 -1.0
  outer loop
    vertex 2.4148145657226703 -0.6470476127563038 1.9999999999999998
    vertex 2.414814565722671 0.6470476127563007 1.9999999999999998
    vertex 2.5 -4.592425496802574e-16 1.9999999999999998
  endloop
endfacet
facet normal 0.0 0.0 -1.0
  outer loop
    vertex -2.4148145657226707 0.6470476127563024 1.9999999999999998
    vertex -2.4148145657226707 -0.6470476127563015 1.9999999999999998
    vertex -2.5 1.5308084989341916e-16 1.9999999999999998
  endloop
endfacet
facet normal 0.0 0.0 -1.0
  outer loop
    vertex -2.4148145657226707 -0.6470476127563015 1.9999999999999998
    vertex -2.4148145657226707 0.6470476127563024 1.9999999999999998
    vertex -2.1650635094610964 1.2500000000000004 1.9999999999999998
  endloop
endfacet
facet normal 0.0 0.0 -1.0
  outer loop
    vertex -2.4148145657226707 -0.6470476127563015 1.9999999999999998
    vertex -2.1650635094610964 1.2500000000000004 1.9999999999999998
    vertex -2.165063509461097 -1.2499999999999996 1.9999999999999998
  endloop
endfacet
facet normal 0.0 0.0 -1.0
  outer loop
    vertex -2.165063509461097 -1.2499999999999996 1.9999999999999998
    vertex -2.1650635094610964 1.2500000000000004 1.9999999999999998
    vertex -1.767766952966369 -1.7677669529663687 1.9999999999999998
  endloop
endfacet
facet normal 0.0 0.0 -1.0
  outer loop
    vertex -1.767766952966369 -1.7677669529663687 1.9999999999999998
    vertex -2.1650635094610964 1.2500000000000004 1.9999999999999998
    vertex -1.7677669529663687 1.767766952966369 1.9999999999999998
  endloop
endfacet
facet normal 0.0 0.0 -1.0
  outer loop
    vertex -1.767766952966369 -1.7677669529663687 1.9999999999999998
    vertex -1.7677669529663687 1.767766952966369 1.9999999999999998
    vertex -1.2500000000000009 -2.1650635094610964 1.9999999999999998
  endloop
endfacet
facet normal 0.0 0.0 -1.0
  outer loop
    vertex -1.2500000000000009 -2.1650635094610964 1.9999999999999998
    vertex -1.7677669529663687 1.767766952966369 1.9999999999999998
    vertex -1.4964115386336434 -0.1036942961020185 1.9999999999999998
  endloop
endfacet
facet normal 0.0 0.0 -1.0
  outer loop
    vertex -1.2500000000000009 -2.1650635094610964 1.9999999999999998
    vertex -1.4964115386336434 -0.1036942961020185 1.9999999999999998
    vertex -1.4185844932234957 -0.4874608041533586 1.9999999999999998
  endloop
endfacet
facet normal 0.0 0.0 -1.0
  outer loop
    vertex -1.2500000000000009 -2.1650635094610964 1.9999999999999998
    vertex -1.4185844932234957 -0.4874608041533586 1.9999999999999998
    vertex -1.2440832589218846 -0.8380076639687156 1.9999999999999998
  endloop
endfacet
facet normal 0.0 0.0 -1.0
  outer loop
    vertex -1.2500000000000009 -2.1650635094610964 1.9999999999999998
    vertex -1.2440832589218846 -0.8380076639687156 1.9999999999999998
    vertex -0.6470476127563025 -2.4148145657226707 1.9999999999999998
  endloop
endfacet
facet normal 0.0 0.0 -1.0
  outer loop
    vertex -0.6470476127563025 -2.4148145657226707 1.9999999999999998
    vertex -1.2440832589218846 -0.8380076639687156 1.9999999999999998
    vertex -0.9847998064695417 -1.1314456863577473 1.9999999999999998
  endloop
endfacet
facet normal 0.0 0.0 -1.0
  outer loop
    vertex -0.6470476127563025 -2.4148145657226707 1.9999999999999998
    vertex -0.9847998064695417 -1.1314456863577473 1.9999999999999998
    vertex -0.6584038746649284 -1.3477775550239028 1.9999999999999998
  endloop
endfacet
facet normal 0.0 0.0 -1.0
  outer loop
    vertex -0.6470476127563025 -2.4148145657226707 1.9999999999999998
    vertex -0.6584038746649284 -1.3477775550239028 1.9999999999999998
    vertex -0.2871388068657478 -1.4722606106229001 1.9999999999999998
  endloop
endfacet
facet normal 0.0 0.0 -1.0
  outer loop
    vertex -0.6470476127563025 -2.4148145657226707 1.9999999999999998
    vertex -0.2871388068657478 -1.4722606106229001 1.9999999999999998
    vertex -3.061616997868383e-16 -2.5 1.9999999999999998
  endloop
endfacet
facet normal 0.0 0.0 -1.0
  outer loop
    vertex -3.061616997868383e-16 -2.5 1.9999999999999998
    vertex -0.2871388068657478 -1.4722606106229001 1.9999999999999998
    vertex 0.10369429610201814 -1.4964115386336432 1.9999999999999998
  endloop
endfacet
facet normal 0.0 0.0 -1.0
  outer loop
    vertex -3.061616997868383e-16 -2.5 1.9999999999999998
    vertex 0.10369429610201814 -1.4964115386336432 1.9999999999999998
    vertex 0.6470476127563008 -2.414814565722671 1.9999999999999998
  endloop
endfacet
facet normal 0.0 0.0 -1.0
  outer loop
    vertex 0.6470476127563008 -2.414814565722671 1.9999999999999998
    vertex 0.10369429610201814 -1.4964115386336432 1.9999999999999998
    vertex 0.48746080415335824 -1.4185844932234954 1.9999999999999998
  endloop
endfacet
facet normal 0.0 0.0 -1.0
  outer loop
    vertex 0.6470476127563008 -2.414814565722671 1.9999999999999998
    vertex 0.48746080415335824 -1.4185844932234954 1.9999999999999998
    vertex 0.8380076639687156 -1.2440832589218842 1.9999999999999998
  endloop
endfacet
facet normal 0.0 0.0 -1.0
  outer loop
    vertex 0.6470476127563008 -2.414814565722671 1.9999999999999998
    vertex 0.8380076639687156 -1.2440832589218842 1.9999999999999998
    vertex 1.2499999999999993 -2.1650635094610973 1.9999999999999998
  endloop
endfacet
facet normal 0.0 0.0 -1.0
  outer loop
    vertex 1.2499999999999993 -2.1650635094610973 1.9999999999999998
    vertex 0.8380076639687156 -1.2440832589218842 1.9999999999999998
    vertex 1.1314456863577478 -0.9847998064695408 1.9999999999999998
  endloop
endfacet
facet normal 0.0 0.0 -1.0
  outer loop
    vertex 1.2499999999999993 -2.1650635094610973 1.9999999999999998
    vertex 1.1314456863577478 -0.9847998064695408 1.9999999999999998
    vertex 1.3477775550239035 -0.6584038746649271 1.9999999999999998
  endloop
endfacet
facet normal 0.0 0.0 -1.0
  outer loop
    vertex 1.2499999999999993 -2.1650635094610973 1.9999999999999998
    vertex 1.3477775550239035 -0.6584038746649271 1.9999999999999998
    vertex 1.767766952966368 -1.7677669529663698 1.9999999999999998
  endloop
endfacet
facet normal 0.0 0.0 -1.0
  outer loop
    vertex 1.767766952966368 -1.7677669529663698 1.9999999999999998
    vertex 1.3477775550239035 -0.6584038746649271 1.9999999999999998
    vertex 1.4722606106229006 -0.28713880686574716 1.9999999999999998
  endloop
endfacet
facet normal 0.0 0.0 -1.0
  outer loop
    vertex 1.767766952966368 -1.7677669529663698 1.9999999999999998
    vertex 1.4722606106229006 -0.28713880686574716 1.9999999999999998
    vertex 1.496411538633643 0.10369429610201902 1.9999999999999998
  endloop
endfacet
facet normal 0.923879532511287 0.38268343236508917 0.0
  outer loop
    vertex 2.1650635094610977 1.2499999999999982 0.9999999999999999
    vertex 2.414814565722671 0.6470476127563007 1.9999999999999998
    vertex 2.414814565722671 0.6470476127563007 0.9999999999999999
  endloop
endfacet
facet normal 0.923879532511287 0.38268343236508917 0.0
  outer loop
    vertex 2.414814565722671 0.6470476127563007 1.9999999999999998
    vertex 2.1650635094610977 1.2499999999999982 0.9999999999999999
    vertex 2.1650635094610977 1.2499999999999982 1.9999999999999998
  endloop
endfacet
facet normal -0.7933533402912352 0.6087614290087209 0.0
  outer loop
    vertex -1.7677669529663687 1.767766952966369 1.9999999999999998
    vertex -2.1650635094610964 1.2500000000000004 0.9999999999999999
    vertex -2.1650635094610964 1.2500000000000004 1.9999999999999998
  endloop
endfacet
facet normal -0.7933533402912352 0.6087614290087209 0.0
  outer loop
    vertex -2.1650635094610964 1.2500000000000004 0.9999999999999999
    vertex -1.7677669529663687 1.767766952966369 1.9999999999999998
    vertex -1.7677669529663687 1.767766952966369 0.9999999999999999
  endloop
endfacet
facet normal 0.9914448613738104 -0.130526192220052 0.0
  outer loop
    vertex 2.5 -4.592425496802574e-16 0.9999999999999999
    vertex 2.4148145657226703 -0.6470476127563038 1.9999999999999998
    vertex 2.4148145657226703 -0.6470476127563038 0.9999999999999999
  endloop
endfacet
facet normal 0.9914448613738104 -0.130526192220052 0.0
  outer loop
    vertex 2.4148145657226703 -0.6470476127563038 1.9999999999999998
    vertex 2.5 -4.592425496802574e-16 0.9999999999999999
    vertex 2.5 -4.592425496802574e-16 1.9999999999999998
  endloop
endfacet
facet normal 0.3826834323650891 -0.9238795325112871 0.0
  outer loop
    vertex 1.2499999999999993 -2.1650635094610973 1.9999999999999998
    vertex 0.6470476127563008 -2.414814565722671 0.9999999999999999
    vertex 1.2499999999999993 -2.1650635094610973 0.9999999999999999
  endloop
endfacet
facet normal 0.3826834323650891 -0.9238795325112871 0.0
  outer loop
    vertex 0.6470476127563008 -2.414814565722671 0.9999999999999999
    vertex 1.2499999999999993 -2.1650635094610973 1.9999999999999998
    vertex 0.6470476127563008 -2.414814565722671 1.9999999999999998
  endloop
endfacet
facet normal -0.9238795325112867 0.3826834323650899 0.0
  outer loop
    vertex -2.1650635094610964 1.2500000000000004 1.9999999999999998
    vertex -2.4148145657226707 0.6470476127563024 0.9999999999999999
    vertex -2.4148145657226707 0.6470476127563024 1.9999999999999998
  endloop
endfacet
facet normal -0.9238795325112867 0.3826834323650899 0.0
  outer loop
    vertex -2.4148145657226707 0.6470476127563024 0.9999999999999999
    vertex -2.1650635094610964 1.2500000000000004 1.9999999999999998
    vertex -2.1650635094610964 1.2500000000000004 0.9999999999999999
  endloop
endfacet
facet normal -0.3826834323650893 0.9238795325112868 0.0
  outer loop
    vertex -1.2499999999999998 2.165063509461097 1.9999999999999998
    vertex -0.6470476127563018 2.4148145657226707 0.9999999999999999
    vertex -1.2499999999999998 2.165063509461097 0.9999999999999999
  endloop
endfacet
facet normal -0.3826834323650893 0.9238795325112868 0.0
  outer loop
    vertex -0.6470476127563018 2.4148145657226707 0.9999999999999999
    vertex -1.2499999999999998 2.165063509461097 1.9999999999999998
    vertex -0.6470476127563018 2.4148145657226707 1.9999999999999998
  endloop
endfacet
facet normal -0.8952146024055622 -0.4456352944279115 -0.0
  outer loop
    vertex -1.4185844932234957 -0.4874608041533586 1.9999999999999998
    vertex -1.2440832589218846 -0.8380076639687156 0.0
    vertex -1.2440832589218846 -0.8380076639687156 1.9999999999999998
  endloop
endfacet
facet normal -0.8952146024055622 -0.4456352944279115 -0.0
  outer loop
    vertex -1.2440832589218846 -0.8380076639687156 0.0
    vertex -1.4185844932234957 -0.4874608041533586 1.9999999999999998
    vertex -1.4185844932234957 -0.4874608041533586 0.0
  endloop
endfacet
facet normal -0.9980962347359583 0.06167581540525215 0.0
  outer loop
    vertex -1.4722606106229001 0.28713880686574805 1.9999999999999998
    vertex -1.4964115386336434 -0.1036942961020185 0.0
    vertex -1.4964115386336434 -0.1036942961020185 1.9999999999999998
  endloop
endfacet
facet normal -0.9980962347359583 0.06167581540525215 0.0
  outer loop
    vertex -1.4964115386336434 -0.1036942961020185 0.0
    vertex -1.4722606106229001 0.28713880686574805 1.9999999999999998
    vertex -1.4722606106229001 0.28713880686574805 0.0
  endloop
endfacet
facet normal -0.8335387870003104 0.5524609403080469 0.0
  outer loop
    vertex -1.1314456863577473 0.9847998064695411 1.9999999999999998
    vertex -1.3477775550239033 0.6584038746649274 0.0
    vertex -1.3477775550239033 0.6584038746649274 1.9999999999999998
  endloop
endfacet
facet normal -0.8335387870003104 0.5524609403080469 0.0
  outer loop
    vertex -1.3477775550239033 0.6584038746649274 0.0
    vertex -1.1314456863577473 0.9847998064695411 1.9999999999999998
    vertex -1.1314456863577473 0.9847998064695411 0.0
  endloop
endfacet
facet normal -0.4456352944279117 0.8952146024055622 0.0
  outer loop
    vertex -0.8380076639687154 1.2440832589218844 1.9999999999999998
    vertex -0.4874608041533589 1.418584493223495 0.0
    vertex -0.8380076639687154 1.2440832589218844 0.0
  endloop
endfacet
facet normal -0.4456352944279117 0.8952146024055622 0.0
  outer loop
    vertex -0.4874608041533589 1.418584493223495 0.0
    vertex -0.8380076639687154 1.2440832589218844 1.9999999999999998
    vertex -0.4874608041533589 1.418584493223495 1.9999999999999998
  endloop
endfacet
facet normal -0.9481240546042318 0.31790057735215216 0.0
  outer loop
    vertex -1.3477775550239033 0.6584038746649274 1.9999999999999998
    vertex -1.4722606106229001 0.28713880686574805 0.0
    vertex -1.4722606106229001 0.28713880686574805 1.9999999999999998
  endloop
endfacet
facet normal -0.9481240546042318 0.31790057735215216 0.0
  outer loop
    vertex -1.4722606106229001 0.28713880686574805 0.0
    vertex -1.3477775550239033 0.6584038746649274 1.9999999999999998
    vertex -1.3477775550239033 0.6584038746649274 0.0
  endloop
endfacet
facet normal -0.6621492285502935 0.7493720031668193 0.0
  outer loop
    vertex -1.1314456863577473 0.9847998064695411 1.9999999999999998
    vertex -0.8380076639687154 1.2440832589218844 0.0
    vertex -1.1314456863577473 0.9847998064695411 0.0
  endloop
endfacet
facet normal -0.6621492285502935 0.7493720031668193 0.0
  outer loop
    vertex -0.8380076639687154 1.2440832589218844 0.0
    vertex -1.1314456863577473 0.9847998064695411 1.9999999999999998
    vertex -0.8380076639687154 1.2440832589218844 1.9999999999999998
  endloop
endfacet
facet normal -0.19875205143741337 0.980049805902445 0.0
  outer loop
    vertex -0.4874608041533589 1.418584493223495 1.9999999999999998
    vertex -0.10369429610201832 1.4964115386336434 0.0
    vertex -0.4874608041533589 1.418584493223495 0.0
  endloop
endfacet
facet normal -0.19875205143741337 0.980049805902445 0.0
  outer loop
    vertex -0.10369429610201832 1.4964115386336434 0.0
    vertex -0.4874608041533589 1.418584493223495 1.9999999999999998
    vertex -0.10369429610201832 1.4964115386336434 1.9999999999999998
  endloop
endfacet
facet normal 0.06167581540525225 0.9980962347359584 0.0
  outer loop
    vertex -0.10369429610201832 1.4964115386336434 1.9999999999999998
    vertex 0.28713880686574766 1.4722606106229001 0.0
    vertex -0.10369429610201832 1.4964115386336434 0.0
  endloop
endfacet
facet normal 0.06167581540525225 0.9980962347359584 0.0
  outer loop
    vertex 0.28713880686574766 1.4722606106229001 0.0
    vertex -0.10369429610201832 1.4964115386336434 1.9999999999999998
    vertex 0.28713880686574766 1.4722606106229001 1.9999999999999998
  endloop
endfacet
facet normal -0.9800498059024452 -0.1987520514374123 -0.0
  outer loop
    vertex -1.4964115386336434 -0.1036942961020185 1.9999999999999998
    vertex -1.4185844932234957 -0.4874608041533586 0.0
    vertex -1.4185844932234957 -0.4874608041533586 1.9999999999999998
  endloop
endfacet
facet normal -0.9800498059024452 -0.1987520514374123 -0.0
  outer loop
    vertex -1.4185844932234957 -0.4874608041533586 0.0
    vertex -1.4964115386336434 -0.1036942961020185 1.9999999999999998
    vertex -1.4964115386336434 -0.1036942961020185 0.0
  endloop
endfacet
facet normal 0.3179005773521521 0.9481240546042319 0.0
  outer loop
    vertex 0.28713880686574766 1.4722606106229001 1.9999999999999998
    vertex 0.6584038746649278 1.347777555023903 0.0
    vertex 0.28713880686574766 1.4722606106229001 0.0
  endloop
endfacet
facet normal 0.3179005773521521 0.9481240546042319 0.0
  outer loop
    vertex 0.6584038746649278 1.347777555023903 0.0
    vertex 0.28713880686574766 1.4722606106229001 1.9999999999999998
    vertex 0.6584038746649278 1.347777555023903 1.9999999999999998
  endloop
endfacet
facet normal 0.5524609403080458 0.833538787000311 0.0
  outer loop
    vertex 0.6584038746649278 1.347777555023903 1.9999999999999998
    vertex 0.9847998064695414 1.1314456863577478 0.0
    vertex 0.6584038746649278 1.347777555023903 0.0
  endloop
endfacet
facet normal 0.5524609403080458 0.833538787000311 0.0
  outer loop
    vertex 0.9847998064695414 1.1314456863577478 0.0
    vertex 0.6584038746649278 1.347777555023903 1.9999999999999998
    vertex 0.9847998064695414 1.1314456863577478 1.9999999999999998
  endloop
endfacet
facet normal 0.9863812365206119 -0.16447509306903746 0.0
  outer loop
    vertex 7.495581869379345 -0.2573954922520089 0.0
    vertex 7.173557255179244 -2.1886242954571387 0.9999999999999999
    vertex 7.173557255179244 -2.1886242954571387 0.0
  endloop
endfacet
facet normal 0.9863812365206119 -0.16447509306903746 0.0
  outer loop
    vertex 7.173557255179244 -2.1886242954571387 0.9999999999999999
    vertex 7.495581869379345 -0.2573954922520089 0.0
    vertex 7.495581869379345 -0.2573954922520089 0.9999999999999999
  endloop
endfacet
facet normal -0.0 -0.0 1.0
  outer loop
    vertex -7.3067949662159615 -1.6913743883839254 0.9999999999999999
    vertex -7.173557255179245 2.1886242954571333 0.9999999999999999
    vertex -7.495581869379344 0.2573954922520082 0.9999999999999999
  endloop
endfacet
facet normal -0.0 -0.0 1.0
  outer loop
    vertex -7.173557255179245 2.1886242954571333 0.9999999999999999
    vertex -7.3067949662159615 -1.6913743883839254 0.9999999999999999
    vertex -6.620062061154569 -3.5248798995798314 0.9999999999999999
  endloop
endfacet
facet normal -0.0 -0.0 1.0
  outer loop
    vertex -7.173557255179245 2.1886242954571333 0.9999999999999999
    vertex -6.620062061154569 -3.5248798995798314 0.9999999999999999
    vertex -6.36266656890256 3.9707019697995123 0.9999999999999999
  endloop
endfacet
facet normal -0.0 -0.0 1.0
  outer loop
    vertex -6.36266656890256 3.9707019697995123 0.9999999999999999
    vertex -6.620062061154569 -3.5248798995798314 0.9999999999999999
    vertex -5.482182866795318 -5.118170670758828 0.9999999999999999
  endloop
endfacet
facet normal -0.0 -0.0 1.0
  outer loop
    vertex -6.36266656890256 3.9707019697995123 0.9999999999999999
    vertex -5.482182866795318 -5.118170670758828 0.9999999999999999
    vertex -5.118170670758829 5.482182866795317 0.9999999999999999
  endloop
endfacet
facet normal -0.0 -0.0 1.0
  outer loop
    vertex -5.118170670758829 5.482182866795317 0.9999999999999999
    vertex -5.482182866795318 -5.118170670758828 0.9999999999999999
    vertex -3.9707019697995145 -6.36266656890256 0.9999999999999999
  endloop
endfacet
facet normal -0.0 -0.0 1.0
  outer loop
    vertex -5.118170670758829 5.482182866795317 0.9999999999999999
    vertex -3.9707019697995145 -6.36266656890256 0.9999999999999999
    vertex -3.5248798995798314 6.620062061154569 0.9999999999999999
  endloop
endfacet
facet normal -0.0 -0.0 1.0
  outer loop
    vertex -3.5248798995798314 6.620062061154569 0.9999999999999999
    vertex -3.9707019697995145 -6.36266656890256 0.9999999999999999
    vertex -2.1886242954571338 -7.173557255179244 0.9999999999999999
  endloop
endfacet
facet normal -0.0 -0.0 1.0
  outer loop
    vertex -3.5248798995798314 6.620062061154569 0.9999999999999999
    vertex -2.1886242954571338 -7.173557255179244 0.9999999999999999
    vertex -2.5 1.5308084989341916e-16 0.9999999999999999
  endloop
endfacet
facet normal -0.0 -0.0 1.0
  outer loop
    vertex -2.5 1.5308084989341916e-16 0.9999999999999999
    vertex -2.1886242954571338 -7.173557255179244 0.9999999999999999
    vertex -2.4148145657226707 -0.6470476127563015 0.9999999999999999
  endloop
endfacet
facet normal -0.0 -0.0 1.0
  outer loop
    vertex -2.4148145657226707 -0.6470476127563015 0.9999999999999999
    vertex -2.1886242954571338 -7.173557255179244 0.9999999999999999
    vertex -2.165063509461097 -1.2499999999999996 0.9999999999999999
  endloop
endfacet
facet normal -0.0 -0.0 1.0
  outer loop
    vertex -2.165063509461097 -1.2499999999999996 0.9999999999999999
    vertex -2.1886242954571338 -7.173557255179244 0.9999999999999999
    vertex -0.25739549225201175 -7.495581869379344 0.9999999999999999
  endloop
endfacet
facet normal -0.0 -0.0 1.0
  outer loop
    vertex -2.165063509461097 -1.2499999999999996 0.9999999999999999
    vertex -0.25739549225201175 -7.495581869379344 0.9999999999999999
    vertex -1.767766952966369 -1.7677669529663687 0.9999999999999999
  endloop
endfacet
facet normal -0.0 -0.0 1.0
  outer loop
    vertex -1.767766952966369 -1.7677669529663687 0.9999999999999999
    vertex -0.25739549225201175 -7.495581869379344 0.9999999999999999
    vertex -1.2500000000000009 -2.1650635094610964 0.9999999999999999
  endloop
endfacet
facet normal -0.0 -0.0 1.0
  outer loop
    vertex -1.2500000000000009 -2.1650635094610964 0.9999999999999999
    vertex -0.25739549225201175 -7.495581869379344 0.9999999999999999
    vertex -0.6470476127563025 -2.4148145657226707 0.9999999999999999
  endloop
endfacet
facet normal -0.0 -0.0 1.0
  outer loop
    vertex -0.6470476127563025 -2.4148145657226707 0.9999999999999999
    vertex -0.25739549225201175 -7.495581869379344 0.9999999999999999
    vertex -3.061616997868383e-16 -2.5 0.9999999999999999
  endloop
endfacet
facet normal -0.0 -0.0 1.0
  outer loop
    vertex -3.061616997868383e-16 -2.5 0.9999999999999999
    vertex -0.25739549225201175 -7.495581869379344 0.9999999999999999
    vertex 1.6913743883839236 -7.3067949662159615 0.9999999999999999
  endloop
endfacet
facet normal -0.0 -0.0 1.0
  outer loop
    vertex -3.061616997868383e-16 -2.5 0.9999999999999999
    vertex 1.6913743883839236 -7.3067949662159615 0.9999999999999999
    vertex 0.6470476127563008 -2.414814565722671 0.9999999999999999
  endloop
endfacet
facet normal -0.0 -0.0 1.0
  outer loop
    vertex 0.6470476127563008 -2.414814565722671 0.9999999999999999
    vertex 1.6913743883839236 -7.3067949662159615 0.9999999999999999
    vertex 1.2499999999999993 -2.1650635094610973 0.9999999999999999
  endloop
endfacet
facet normal -0.0 -0.0 1.0
  outer loop
    vertex 1.2499999999999993 -2.1650635094610973 0.9999999999999999
    vertex 1.6913743883839236 -7.3067949662159615 0.9999999999999999
    vertex 1.767766952966368 -1.7677669529663698 0.9999999999999999
  endloop
endfacet
facet normal -0.0 -0.0 1.0
  outer loop
    vertex 1.767766952966368 -1.7677669529663698 0.9999999999999999
    vertex 1.6913743883839236 -7.3067949662159615 0.9999999999999999
    vertex 3.5248798995798283 -6.620062061154571 0.9999999999999999
  endloop
endfacet
facet normal -0.0 -0.0 1.0
  outer loop
    vertex 1.767766952966368 -1.7677669529663698 0.9999999999999999
    vertex 3.5248798995798283 -6.620062061154571 0.9999999999999999
    vertex 2.165063509461096 -1.250000000000001 0.9999999999999999
  endloop
endfacet
facet normal -0.0 -0.0 1.0
  outer loop
    vertex 2.165063509461096 -1.250000000000001 0.9999999999999999
    vertex 3.5248798995798283 -6.620062061154571 0.9999999999999999
    vertex 2.4148145657226703 -0.6470476127563038 0.9999999999999999
  endloop
endfacet
facet normal -0.0 -0.0 1.0
  outer loop
    vertex 2.4148145657226703 -0.6470476127563038 0.9999999999999999
    vertex 3.5248798995798283 -6.620062061154571 0.9999999999999999
    vertex 2.5 -4.592425496802574e-16 0.9999999999999999
  endloop
endfacet
facet normal -0.0 -0.0 1.0
  outer loop
    vertex -2.5 1.5308084989341916e-16 0.9999999999999999
    vertex -1.6913743883839267 7.3067949662159615 0.9999999999999999
    vertex -3.5248798995798314 6.620062061154569 0.9999999999999999
  endloop
endfacet
facet normal -0.0 -0.0 1.0
  outer loop
    vertex -1.6913743883839267 7.3067949662159615 0.9999999999999999
    vertex -2.5 1.5308084989341916e-16 0.9999999999999999
    vertex -2.4148145657226707 0.6470476127563024 0.9999999999999999
  endloop
endfacet
facet normal -0.0 -0.0 1.0
  outer loop
    vertex -1.6913743883839267 7.3067949662159615 0.9999999999999999
    vertex -2.4148145657226707 0.6470476127563024 0.9999999999999999
    vertex -2.1650635094610964 1.2500000000000004 0.9999999999999999
  endloop
endfacet
facet normal -0.0 -0.0 1.0
  outer loop
    vertex -1.6913743883839267 7.3067949662159615 0.9999999999999999
    vertex -2.1650635094610964 1.2500000000000004 0.9999999999999999
    vertex -1.7677669529663687 1.767766952966369 0.9999999999999999
  endloop
endfacet
facet normal -0.0 -0.0 1.0
  outer loop
    vertex -1.6913743883839267 7.3067949662159615 0.9999999999999999
    vertex -1.7677669529663687 1.767766952966369 0.9999999999999999
    vertex -1.2499999999999998 2.165063509461097 0.9999999999999999
  endloop
endfacet
facet normal -0.0 -0.0 1.0
  outer loop
    vertex -1.6913743883839267 7.3067949662159615 0.9999999999999999
    vertex -1.2499999999999998 2.165063509461097 0.9999999999999999
    vertex 0.2573954922520082 7.495581869379344 0.9999999999999999
  endloop
endfacet
facet normal -0.0 -0.0 1.0
  outer loop
    vertex 0.2573954922520082 7.495581869379344 0.9999999999999999
    vertex -1.2499999999999998 2.165063509461097 0.9999999999999999
    vertex -0.6470476127563018 2.4148145657226707 0.9999999999999999
  endloop
endfacet
facet normal -0.0 -0.0 1.0
  outer loop
    vertex 0.2573954922520082 7.495581869379344 0.9999999999999999
    vertex -0.6470476127563018 2.4148145657226707 0.9999999999999999
    vertex 0.0 2.5 0.9999999999999999
  endloop
endfacet
facet normal -0.0 -0.0 1.0
  outer loop
    vertex 0.2573954922520082 7.495581869379344 0.9999999999999999
    vertex 0.0 2.5 0.9999999999999999
    vertex 0.647047612756304 2.4148145657226703 0.9999999999999999
  endloop
endfacet
facet normal -0.0 -0.0 1.0
  outer loop
    vertex 0.2573954922520082 7.495581869379344 0.9999999999999999
    vertex 0.647047612756304 2.4148145657226703 0.9999999999999999
    vertex 2.188624295457133 7.173557255179245 0.9999999999999999
  endloop
endfacet
facet normal -0.0 -0.0 1.0
  outer loop
    vertex 2.188624295457133 7.173557255179245 0.9999999999999999
    vertex 0.647047612756304 2.4148145657226703 0.9999999999999999
    vertex 1.250000000000001 2.165063509461096 0.9999999999999999
  endloop
endfacet
facet normal -0.0 -0.0 1.0
  outer loop
    vertex 2.188624295457133 7.173557255179245 0.9999999999999999
    vertex 1.250000000000001 2.165063509461096 0.9999999999999999
    vertex 1.7677669529663693 1.7677669529663682 0.9999999999999999
  endloop
endfacet
facet normal -0.0 -0.0 1.0
  outer loop
    vertex 2.188624295457133 7.173557255179245 0.9999999999999999
    vertex 1.7677669529663693 1.7677669529663682 0.9999999999999999
    vertex 2.1650635094610977 1.2499999999999982 0.9999999999999999
  endloop
endfacet
facet normal -0.0 -0.0 1.0
  outer loop
    vertex 2.188624295457133 7.173557255179245 0.9999999999999999
    vertex 2.1650635094610977 1.2499999999999982 0.9999999999999999
    vertex 2.414814565722671 0.6470476127563007 0.9999999999999999
  endloop
endfacet
facet normal -0.0 -0.0 1.0
  outer loop
    vertex 2.188624295457133 7.173557255179245 0.9999999999999999
    vertex 2.414814565722671 0.6470476127563007 0.9999999999999999
    vertex 3.9707019697995114 6.3626665689025605 0.9999999999999999
  endloop
endfacet
facet normal -0.0 -0.0 1.0
  outer loop
    vertex 3.9707019697995114 6.3626665689025605 0.9999999999999999
    vertex 2.414814565722671 0.6470476127563007 0.9999999999999999
    vertex 2.5 -4.592425496802574e-16 0.9999999999999999
  endloop
endfacet
facet normal -0.0 -0.0 1.0
  outer loop
    vertex 3.9707019697995114 6.3626665689025605 0.9999999999999999
    vertex 2.5 -4.592425496802574e-16 0.9999999999999999
    vertex 3.5248798995798283 -6.620062061154571 0.9999999999999999
  endloop
endfacet
facet normal -0.0 -0.0 1.0
  outer loop
    vertex 3.9707019697995114 6.3626665689025605 0.9999999999999999
    vertex 3.5248798995798283 -6.620062061154571 0.9999999999999999
    vertex 5.118170670758828 -5.482182866795318 0.9999999999999999
  endloop
endfacet
facet normal -0.0 -0.0 1.0
  outer loop
    vertex 3.9707019697995114 6.3626665689025605 0.9999999999999999
    vertex 5.118170670758828 -5.482182866795318 0.9999999999999999
    vertex 5.482182866795317 5.118170670758829 0.9999999999999999
  endloop
endfacet
facet normal -0.0 -0.0 1.0
  outer loop
    vertex 5.482182866795317 5.118170670758829 0.9999999999999999
    vertex 5.118170670758828 -5.482182866795318 0.9999999999999999
    vertex 6.36266656890256 -3.9707019697995145 0.9999999999999999
  endloop
endfacet
facet normal -0.0 -0.0 1.0
  outer loop
    vertex 5.482182866795317 5.118170670758829 0.9999999999999999
    vertex 6.36266656890256 -3.9707019697995145 0.9999999999999999
    vertex 6.620062061154571 3.5248798995798274 0.9999999999999999
  endloop
endfacet
facet normal -0.0 -0.0 1.0
  outer loop
    vertex 6.620062061154571 3.5248798995798274 0.9999999999999999
    vertex 6.36266656890256 -3.9707019697995145 0.9999999999999999
    vertex 7.173557255179244 -2.1886242954571387 0.9999999999999999
  endloop
endfacet
facet normal -0.0 -0.0 1.0
  outer loop
    vertex 6.620062061154571 3.5248798995798274 0.9999999999999999
    vertex 7.173557255179244 -2.1886242954571387 0.9999999999999999
    vertex 7.3067949662159615 1.6913743883839236 0.9999999999999999
  endloop
endfacet
facet normal -0.0 -0.0 1.0
  outer loop
    vertex 7.3067949662159615 1.6913743883839236 0.9999999999999999
    vertex 7.173557255179244 -2.1886242954571387 0.9999999999999999
    vertex 7.495581869379345 -0.2573954922520089 0.9999999999999999
  endloop
endfacet
facet normal 0.09642350956662664 -0.9953403974534817 0.0
  outer loop
    vertex 1.6913743883839236 -7.3067949662159615 0.9999999999999999
    vertex -0.25739549225201175 -7.495581869379344 0.0
    vertex 1.6913743883839236 -7.3067949662159615 0.0
  endloop
endfacet
facet normal 0.09642350956662664 -0.9953403974534817 0.0
  outer loop
    vertex -0.25739549225201175 -7.495581869379344 0.0
    vertex 1.6913743883839236 -7.3067949662159615 0.9999999999999999
    vertex -0.25739549225201175 -7.495581869379344 0.9999999999999999
  endloop
endfacet
facet normal 0.8137783148243015 0.5811754075334917 0.0
  outer loop
    vertex 5.482182866795317 5.118170670758829 0.0
    vertex 6.620062061154571 3.5248798995798274 0.9999999999999999
    vertex 6.620062061154571 3.5248798995798274 0.0
  endloop
endfacet
facet normal 0.8137783148243015 0.5811754075334917 0.0
  outer loop
    vertex 6.620062061154571 3.5248798995798274 0.9999999999999999
    vertex 5.482182866795317 5.118170670758829 0.0
    vertex 5.482182866795317 5.118170670758829 0.9999999999999999
  endloop
endfacet
facet normal 0.16447509306903652 0.9863812365206123 0.0
  outer loop
    vertex 0.2573954922520082 7.495581869379344 0.9999999999999999
    vertex 2.188624295457133 7.173557255179245 0.0
    vertex 0.2573954922520082 7.495581869379344 0.0
  endloop
endfacet
facet normal 0.16447509306903652 0.9863812365206123 0.0
  outer loop
    vertex 2.188624295457133 7.173557255179245 0.0
    vertex 0.2573954922520082 7.495581869379344 0.9999999999999999
    vertex 2.188624295457133 7.173557255179245 0.9999999999999999
  endloop
endfacet
facet normal 0.9102018243909284 -0.41416498991999023 0.0
  outer loop
    vertex 7.173557255179244 -2.1886242954571387 0.0
    vertex 6.36266656890256 -3.9707019697995145 0.9999999999999999
    vertex 6.36266656890256 -3.9707019697995145 0.0
  endloop
endfacet
facet normal 0.9102018243909284 -0.41416498991999023 0.0
  outer loop
    vertex 6.36266656890256 -3.9707019697995145 0.9999999999999999
    vertex 7.173557255179244 -2.1886242954571387 0.0
    vertex 7.173557255179244 -2.1886242954571387 0.9999999999999999
  endloop
endfacet
facet normal -0.9364687551776756 -0.3507510093727098 -0.0
  outer loop
    vertex -7.3067949662159615 -1.6913743883839254 0.9999999999999999
    vertex -6.620062061154569 -3.5248798995798314 0.0
    vertex -6.620062061154569 -3.5248798995798314 0.9999999999999999
  endloop
endfacet
facet normal -0.9364687551776756 -0.3507510093727098 -0.0
  outer loop
    vertex -6.620062061154569 -3.5248798995798314 0.0
    vertex -7.3067949662159615 -1.6913743883839254 0.9999999999999999
    vertex -7.3067949662159615 -1.6913743883839254 0.0
  endloop
endfacet
facet normal 0.8952146024055622 0.4456352944279117 0.0
  outer loop
    vertex 1.2440832589218846 0.8380076639687157 0.0
    vertex 1.4185844932234952 0.4874608041533593 1.9999999999999998
    vertex 1.4185844932234952 0.4874608041533593 0.0
  endloop
endfacet
facet normal 0.8952146024055622 0.4456352944279117 0.0
  outer loop
    vertex 1.4185844932234952 0.4874608041533593 1.9999999999999998
    vertex 1.2440832589218846 0.8380076639687157 0.0
    vertex 1.2440832589218846 0.8380076639687157 1.9999999999999998
  endloop
endfacet
facet normal -0.6356302271479024 -0.7719936621086383 -0.0
  outer loop
    vertex -3.9707019697995145 -6.36266656890256 0.9999999999999999
    vertex -5.482182866795318 -5.118170670758828 0.0
    vertex -3.9707019697995145 -6.36266656890256 0.0
  endloop
endfacet
facet normal -0.6356302271479024 -0.7719936621086383 -0.0
  outer loop
    vertex -5.482182866795318 -5.118170670758828 0.0
    vertex -3.9707019697995145 -6.36266656890256 0.9999999999999999
    vertex -5.482182866795318 -5.118170670758828 0.9999999999999999
  endloop
endfacet
facet normal -0.7719936621086386 0.6356302271479017 0.0
  outer loop
    vertex -5.118170670758829 5.482182866795317 0.9999999999999999
    vertex -6.36266656890256 3.9707019697995123 0.0
    vertex -6.36266656890256 3.9707019697995123 0.9999999999999999
  endloop
endfacet
facet normal -0.7719936621086386 0.6356302271479017 0.0
  outer loop
    vertex -6.36266656890256 3.9707019697995123 0.0
    vertex -5.118170670758829 5.482182866795317 0.9999999999999999
    vertex -5.118170670758829 5.482182866795317 0.0
  endloop
endfacet
facet normal -0.9102018243909284 0.41416498991999023 0.0
  outer loop
    vertex -6.36266656890256 3.9707019697995123 0.9999999999999999
    vertex -7.173557255179245 2.1886242954571333 0.0
    vertex -7.173557255179245 2.1886242954571333 0.9999999999999999
  endloop
endfacet
facet normal -0.9102018243909284 0.41416498991999023 0.0
  outer loop
    vertex -7.173557255179245 2.1886242954571333 0.0
    vertex -6.36266656890256 3.9707019697995123 0.9999999999999999
    vertex -6.36266656890256 3.9707019697995123 0.0
  endloop
endfacet
facet normal 0.9800498059024452 0.19875205143741223 0.0
  outer loop
    vertex 1.4185844932234952 0.4874608041533593 0.0
    vertex 1.496411538633643 0.10369429610201902 1.9999999999999998
    vertex 1.496411538633643 0.10369429610201902 0.0
  endloop
endfacet
facet normal 0.9800498059024452 0.19875205143741223 0.0
  outer loop
    vertex 1.496411538633643 0.10369429610201902 1.9999999999999998
    vertex 1.4185844932234952 0.4874608041533593 0.0
    vertex 1.4185844932234952 0.4874608041533593 1.9999999999999998
  endloop
endfacet
facet normal 0.9481240546042319 -0.31790057735215216 0.0
  outer loop
    vertex 1.4722606106229006 -0.28713880686574716 0.0
    vertex 1.3477775550239035 -0.6584038746649271 1.9999999999999998
    vertex 1.3477775550239035 -0.6584038746649271 0.0
  endloop
endfacet
facet normal 0.9481240546042319 -0.31790057735215216 0.0
  outer loop
    vertex 1.3477775550239035 -0.6584038746649271 1.9999999999999998
    vertex 1.4722606106229006 -0.28713880686574716 0.0
    vertex 1.4722606106229006 -0.28713880686574716 1.9999999999999998
  endloop
endfacet
facet normal 0.4456352944279119 -0.8952146024055622 0.0
  outer loop
    vertex 0.8380076639687156 -1.2440832589218842 1.9999999999999998
    vertex 0.48746080415335824 -1.4185844932234954 0.0
    vertex 0.8380076639687156 -1.2440832589218842 0.0
  endloop
endfacet
facet normal 0.4456352944279119 -0.8952146024055622 0.0
  outer loop
    vertex 0.48746080415335824 -1.4185844932234954 0.0
    vertex 0.8380076639687156 -1.2440832589218842 1.9999999999999998
    vertex 0.48746080415335824 -1.4185844932234954 1.9999999999999998
  endloop
endfacet
facet normal -0.9953403974534816 -0.09642350956662671 -0.0
  outer loop
    vertex -7.495581869379344 0.2573954922520082 0.9999999999999999
    vertex -7.3067949662159615 -1.6913743883839254 0.0
    vertex -7.3067949662159615 -1.6913743883839254 0.9999999999999999
  endloop
endfacet
facet normal -0.9953403974534816 -0.09642350956662671 -0.0
  outer loop
    vertex -7.3067949662159615 -1.6913743883839254 0.0
    vertex -7.495581869379344 0.2573954922520082 0.9999999999999999
    vertex -7.495581869379344 0.2573954922520082 0.0
  endloop
endfacet
facet normal 0.635630227147902 0.7719936621086385 0.0
  outer loop
    vertex 3.9707019697995114 6.3626665689025605 0.9999999999999999
    vertex 5.482182866795317 5.118170670758829 0.0
    vertex 3.9707019697995114 6.3626665689025605 0.0
  endloop
endfacet
facet normal 0.635630227147902 0.7719936621086385 0.0
  outer loop
    vertex 5.482182866795317 5.118170670758829 0.0
    vertex 3.9707019697995114 6.3626665689025605 0.9999999999999999
    vertex 5.482182866795317 5.118170670758829 0.9999999999999999
  endloop
endfacet
facet normal 0.7719936621086383 -0.6356302271479024 0.0
  outer loop
    vertex 6.36266656890256 -3.9707019697995145 0.0
    vertex 5.118170670758828 -5.482182866795318 0.9999999999999999
    vertex 5.118170670758828 -5.482182866795318 0.0
  endloop
endfacet
facet normal 0.7719936621086383 -0.6356302271479024 0.0
  outer loop
    vertex 5.118170670758828 -5.482182866795318 0.9999999999999999
    vertex 6.36266656890256 -3.9707019697995145 0.0
    vertex 6.36266656890256 -3.9707019697995145 0.9999999999999999
  endloop
endfacet
facet normal -0.16447509306903738 -0.9863812365206119 -0.0
  outer loop
    vertex -0.25739549225201175 -7.495581869379344 0.9999999999999999
    vertex -2.1886242954571338 -7.173557255179244 0.0
    vertex -0.25739549225201175 -7.495581869379344 0.0
  endloop
endfacet
facet normal -0.16447509306903738 -0.9863812365206119 -0.0
  outer loop
    vertex -2.1886242954571338 -7.173557255179244 0.0
    vertex -0.25739549225201175 -7.495581869379344 0.9999999999999999
    vertex -2.1886242954571338 -7.173557255179244 0.9999999999999999
  endloop
endfacet
facet normal 0.6621492285502932 -0.7493720031668194 0.0
  outer loop
    vertex 1.1314456863577478 -0.9847998064695408 1.9999999999999998
    vertex 0.8380076639687156 -1.2440832589218842 0.0
    vertex 1.1314456863577478 -0.9847998064695408 0.0
  endloop
endfacet
facet normal 0.6621492285502932 -0.7493720031668194 0.0
  outer loop
    vertex 0.8380076639687156 -1.2440832589218842 0.0
    vertex 1.1314456863577478 -0.9847998064695408 1.9999999999999998
    vertex 0.8380076639687156 -1.2440832589218842 1.9999999999999998
  endloop
endfacet
facet normal 0.8335387870003107 -0.5524609403080464 0.0
  outer loop
    vertex 1.3477775550239035 -0.6584038746649271 0.0
    vertex 1.1314456863577478 -0.9847998064695408 1.9999999999999998
    vertex 1.1314456863577478 -0.9847998064695408 0.0
  endloop
endfacet
facet normal 0.8335387870003107 -0.5524609403080464 0.0
  outer loop
    vertex 1.1314456863577478 -0.9847998064695408 1.9999999999999998
    vertex 1.3477775550239035 -0.6584038746649271 0.0
    vertex 1.3477775550239035 -0.6584038746649271 1.9999999999999998
  endloop
endfacet
facet normal -0.9863812365206123 0.16447509306903646 0.0
  outer loop
    vertex -7.173557255179245 2.1886242954571333 0.9999999999999999
    vertex -7.495581869379344 0.2573954922520082 0.0
    vertex -7.495581869379344 0.2573954922520082 0.9999999999999999
  endloop
endfacet
facet normal -0.9863812365206123 0.16447509306903646 0.0
  outer loop
    vertex -7.495581869379344 0.2573954922520082 0.0
    vertex -7.173557255179245 2.1886242954571333 0.9999999999999999
    vertex -7.173557255179245 2.1886242954571333 0.0
  endloop
endfacet
facet normal 0.3507510093727095 -0.9364687551776757 0.0
  outer loop
    vertex 3.5248798995798283 -6.620062061154571 0.9999999999999999
    vertex 1.6913743883839236 -7.3067949662159615 0.0
    vertex 3.5248798995798283 -6.620062061154571 0.0
  endloop
endfacet
facet normal 0.3507510093727095 -0.9364687551776757 0.0
  outer loop
    vertex 1.6913743883839236 -7.3067949662159615 0.0
    vertex 3.5248798995798283 -6.620062061154571 0.9999999999999999
    vertex 1.6913743883839236 -7.3067949662159615 0.9999999999999999
  endloop
endfacet
facet normal -0.06167581540525181 -0.9980962347359584 -0.0
  outer loop
    vertex 0.10369429610201814 -1.4964115386336432 1.9999999999999998
    vertex -0.2871388068657478 -1.4722606106229001 0.0
    vertex 0.10369429610201814 -1.4964115386336432 0.0
  endloop
endfacet
facet normal -0.06167581540525181 -0.9980962347359584 -0.0
  outer loop
    vertex -0.2871388068657478 -1.4722606106229001 0.0
    vertex 0.10369429610201814 -1.4964115386336432 1.9999999999999998
    vertex -0.2871388068657478 -1.4722606106229001 1.9999999999999998
  endloop
endfacet
facet normal 0.7493720031668194 0.6621492285502931 0.0
  outer loop
    vertex 0.9847998064695414 1.1314456863577478 0.0
    vertex 1.2440832589218846 0.8380076639687157 1.9999999999999998
    vertex 1.2440832589218846 0.8380076639687157 0.0
  endloop
endfacet
facet normal 0.7493720031668194 0.6621492285502931 0.0
  outer loop
    vertex 1.2440832589218846 0.8380076639687157 1.9999999999999998
    vertex 0.9847998064695414 1.1314456863577478 0.0
    vertex 0.9847998064695414 1.1314456863577478 1.9999999999999998
  endloop
endfacet
facet normal -0.09642350956662667 0.9953403974534817 0.0
  outer loop
    vertex -1.6913743883839267 7.3067949662159615 0.9999999999999999
    vertex 0.2573954922520082 7.495581869379344 0.0
    vertex -1.6913743883839267 7.3067949662159615 0.0
  endloop
endfacet
facet normal -0.09642350956662667 0.9953403974534817 0.0
  outer loop
    vertex 0.2573954922520082 7.495581869379344 0.0
    vertex -1.6913743883839267 7.3067949662159615 0.9999999999999999
    vertex 0.2573954922520082 7.495581869379344 0.9999999999999999
  endloop
endfacet
facet normal 0.4141649899199896 0.9102018243909286 0.0
  outer loop
    vertex 2.188624295457133 7.173557255179245 0.9999999999999999
    vertex 3.9707019697995114 6.3626665689025605 0.0
    vertex 2.188624295457133 7.173557255179245 0.0
  endloop
endfacet
facet normal 0.4141649899199896 0.9102018243909286 0.0
  outer loop
    vertex 3.9707019697995114 6.3626665689025605 0.0
    vertex 2.188624295457133 7.173557255179245 0.9999999999999999
    vertex 3.9707019697995114 6.3626665689025605 0.9999999999999999
  endloop
endfacet
facet normal 0.9980962347359584 -0.061675815405250425 0.0
  outer loop
    vertex 1.496411538633643 0.10369429610201902 0.0
    vertex 1.4722606106229006 -0.28713880686574716 1.9999999999999998
    vertex 1.4722606106229006 -0.28713880686574716 0.0
  endloop
endfacet
facet normal 0.9980962347359584 -0.061675815405250425 0.0
  outer loop
    vertex 1.4722606106229006 -0.28713880686574716 1.9999999999999998
    vertex 1.496411538633643 0.10369429610201902 0.0
    vertex 1.496411538633643 0.10369429610201902 1.9999999999999998
  endloop
endfacet
facet normal -0.3507510093727101 0.9364687551776755 0.0
  outer loop
    vertex -3.5248798995798314 6.620062061154569 0.9999999999999999
    vertex -1.6913743883839267 7.3067949662159615 0.0
    vertex -3.5248798995798314 6.620062061154569 0.0
  endloop
endfacet
facet normal -0.3507510093727101 0.9364687551776755 0.0
  outer loop
    vertex -1.6913743883839267 7.3067949662159615 0.0
    vertex -3.5248798995798314 6.620062061154569 0.9999999999999999
    vertex -1.6913743883839267 7.3067949662159615 0.9999999999999999
  endloop
endfacet
facet normal -0.31790057735215205 -0.948124054604232 -0.0
  outer loop
    vertex -0.2871388068657478 -1.4722606106229001 1.9999999999999998
    vertex -0.6584038746649284 -1.3477775550239028 0.0
    vertex -0.2871388068657478 -1.4722606106229001 0.0
  endloop
endfacet
facet normal -0.31790057735215205 -0.948124054604232 -0.0
  outer loop
    vertex -0.6584038746649284 -1.3477775550239028 0.0
    vertex -0.2871388068657478 -1.4722606106229001 1.9999999999999998
    vertex -0.6584038746649284 -1.3477775550239028 1.9999999999999998
  endloop
endfacet
facet normal 0.5811754075334917 -0.8137783148243013 0.0
  outer loop
    vertex 5.118170670758828 -5.482182866795318 0.9999999999999999
    vertex 3.5248798995798283 -6.620062061154571 0.0
    vertex 5.118170670758828 -5.482182866795318 0.0
  endloop
endfacet
facet normal 0.5811754075334917 -0.8137783148243013 0.0
  outer loop
    vertex 3.5248798995798283 -6.620062061154571 0.0
    vertex 5.118170670758828 -5.482182866795318 0.9999999999999999
    vertex 3.5248798995798283 -6.620062061154571 0.9999999999999999
  endloop
endfacet
facet normal 0.1987520514374123 -0.9800498059024452 0.0
  outer loop
    vertex 0.48746080415335824 -1.4185844932234954 1.9999999999999998
    vertex 0.10369429610201814 -1.4964115386336432 0.0
    vertex 0.48746080415335824 -1.4185844932234954 0.0
  endloop
endfacet
facet normal 0.1987520514374123 -0.9800498059024452 0.0
  outer loop
    vertex 0.10369429610201814 -1.4964115386336432 0.0
    vertex 0.48746080415335824 -1.4185844932234954 1.9999999999999998
    vertex 0.10369429610201814 -1.4964115386336432 1.9999999999999998
  endloop
endfacet
facet normal 0.9953403974534817 0.0964235095666275 0.0
  outer loop
    vertex 7.3067949662159615 1.6913743883839236 0.0
    vertex 7.495581869379345 -0.2573954922520089 0.9999999999999999
    vertex 7.495581869379345 -0.2573954922520089 0.0
  endloop
endfacet
facet normal 0.9953403974534817 0.0964235095666275 0.0
  outer loop
    vertex 7.495581869379345 -0.2573954922520089 0.9999999999999999
    vertex 7.3067949662159615 1.6913743883839236 0.0
    vertex 7.3067949662159615 1.6913743883839236 0.9999999999999999
  endloop
endfacet
facet normal -0.41416498991998935 -0.9102018243909288 -0.0
  outer loop
    vertex -2.1886242954571338 -7.173557255179244 0.9999999999999999
    vertex -3.9707019697995145 -6.36266656890256 0.0
    vertex -2.1886242954571338 -7.173557255179244 0.0
  endloop
endfacet
facet normal -0.41416498991998935 -0.9102018243909288 -0.0
  outer loop
    vertex -3.9707019697995145 -6.36266656890256 0.0
    vertex -2.1886242954571338 -7.173557255179244 0.9999999999999999
    vertex -3.9707019697995145 -6.36266656890256 0.9999999999999999
  endloop
endfacet
facet normal -0.8137783148243012 -0.5811754075334921 -0.0
  outer loop
    vertex -6.620062061154569 -3.5248798995798314 0.9999999999999999
    vertex -5.482182866795318 -5.118170670758828 0.0
    vertex -5.482182866795318 -5.118170670758828 0.9999999999999999
  endloop
endfacet
facet normal -0.8137783148243012 -0.5811754075334921 -0.0
  outer loop
    vertex -5.482182866795318 -5.118170670758828 0.0
    vertex -6.620062061154569 -3.5248798995798314 0.9999999999999999
    vertex -6.620062061154569 -3.5248798995798314 0.0
  endloop
endfacet
facet normal 0.9364687551776758 0.35075100937270964 0.0
  outer loop
    vertex 6.620062061154571 3.5248798995798274 0.0
    vertex 7.3067949662159615 1.6913743883839236 0.9999999999999999
    vertex 7.3067949662159615 1.6913743883839236 0.0
  endloop
endfacet
facet normal 0.9364687551776758 0.35075100937270964 0.0
  outer loop
    vertex 7.3067949662159615 1.6913743883839236 0.9999999999999999
    vertex 6.620062061154571 3.5248798995798274 0.0
    vertex 6.620062061154571 3.5248798995798274 0.9999999999999999
  endloop
endfacet
facet normal -0.5811754075334922 0.8137783148243011 0.0
  outer loop
    vertex -5.118170670758829 5.482182866795317 0.9999999999999999
    vertex -3.5248798995798314 6.620062061154569 0.0
    vertex -5.118170670758829 5.482182866795317 0.0
  endloop
endfacet
facet normal -0.5811754075334922 0.8137783148243011 0.0
  outer loop
    vertex -3.5248798995798314 6.620062061154569 0.0
    vertex -5.118170670758829 5.482182866795317 0.9999999999999999
    vertex -3.5248798995798314 6.620062061154569 0.9999999999999999
  endloop
endfacet
facet normal -0.7493720031668193 -0.6621492285502933 -0.0
  outer loop
    vertex -1.2440832589218846 -0.8380076639687156 1.9999999999999998
    vertex -0.9847998064695417 -1.1314456863577473 0.0
    vertex -0.9847998064695417 -1.1314456863577473 1.9999999999999998
  endloop
endfacet
facet normal -0.7493720031668193 -0.6621492285502933 -0.0
  outer loop
    vertex -0.9847998064695417 -1.1314456863577473 0.0
    vertex -1.2440832589218846 -0.8380076639687156 1.9999999999999998
    vertex -1.2440832589218846 -0.8380076639687156 0.0
  endloop
endfacet
facet normal -0.5524609403080469 -0.8335387870003105 -0.0
  outer loop
    vertex -0.6584038746649284 -1.3477775550239028 1.9999999999999998
    vertex -0.9847998064695417 -1.1314456863577473 0.0
    vertex -0.6584038746649284 -1.3477775550239028 0.0
  endloop
endfacet
facet normal -0.5524609403080469 -0.8335387870003105 -0.0
  outer loop
    vertex -0.9847998064695417 -1.1314456863577473 0.0
    vertex -0.6584038746649284 -1.3477775550239028 1.9999999999999998
    vertex -0.9847998064695417 -1.1314456863577473 1.9999999999999998
  endloop
endfacet
endsolid Untitled-5731ef04
